<!-- Generator: Adobe Illustrator 20.1.0, SVG Export Plug-In  -->
<svg version="1.1"
	 xmlns="http://www.w3.org/2000/svg" xmlns:xlink="http://www.w3.org/1999/xlink" xmlns:a="http://ns.adobe.com/AdobeSVGViewerExtensions/3.0/"
	 x="0px" y="0px" width="309.7px" height="524.3px" viewBox="0 0 309.7 524.3" style="enable-background:new 0 0 309.7 524.3;"
	 xml:space="preserve">
<style type="text/css">
	.st0{fill-rule:evenodd;clip-rule:evenodd;fill:#E30E13;}
	.st1{fill-rule:evenodd;clip-rule:evenodd;fill:#464646;}
</style>
<defs>
</defs>
<path class="st0" d="M0,241.1c14.7,0,29.1,0,44.1,0c0,79.4,0,158.6,0,238.2c73.8,0,147,0,220.6,0c0-144.5,0-289.2,0-434.7
	c-29.3,0-58.8,0-88.6,0c0-15.3,0-29.8,0-44.7c44.6,0,89,0,133.6,0c0,174.8,0,349.3,0,524.3c-103.1,0-206.3,0-309.7,0
	C0,429.8,0,335.6,0,241.1z"/>
<path class="st1" d="M175.8,88.3c15.2,0,29.6,0,44.6,0c0,2.3,0,4.2,0,6.2c0,37.8,0,75.7,0.1,113.5c0,3.5-1.1,5.9-3.5,8.2
	c-8,7.7-15.8,15.7-24.5,24.4c9.8,0,18.5,0,27.6,0c0,64.6,0,128.7,0,193.1c-14.6,0-29.1,0-44.1,0c0-58.4,0-116.6,0-176
	c-1.8,1.5-2.9,2.4-3.9,3.3c-11.6,11.5-23,23.1-34.7,34.6c-2.4,2.4-3.4,4.8-3.4,8.3c0.1,41.2,0.1,82.3,0.1,123.5c0,2,0,4,0,6.3
	c-15,0-29.7,0-44.7,0c0-115.2,0-230.1,0-345.4c14.7,0,29.3,0,44.4,0c0,48.7,0,97.4,0,147.2c1.9-1.7,3-2.5,4-3.5
	c11.6-11.5,23.2-23,34.5-34.7c1.9-2,3.3-5.4,3.4-8.2c0.2-31.5,0.1-63,0.1-94.5C175.8,92.7,175.8,90.7,175.8,88.3z"/>
</svg>
