<svg
 xmlns="http://www.w3.org/2000/svg"
 xmlns:xlink="http://www.w3.org/1999/xlink"
 width="21px" height="19px" viewBox="0 0 21 19">
<path fill-rule="evenodd"  stroke-width="1px" stroke="rgb(255, 255, 255)" fill="rgb(255, 255, 255)"
 d="M20.343,2.995 C19.621,3.330 18.845,3.556 18.030,3.658 C18.861,3.137 19.500,2.312 19.800,1.330 C19.022,1.812 18.161,2.162 17.243,2.351 C16.509,1.533 15.462,1.022 14.304,1.022 C12.080,1.022 10.276,2.906 10.276,5.230 C10.276,5.559 10.312,5.881 10.381,6.189 C7.034,6.013 4.066,4.338 2.080,1.792 C1.733,2.414 1.534,3.137 1.534,3.908 C1.534,5.367 2.245,6.656 3.326,7.410 C2.666,7.388 2.045,7.199 1.502,6.884 C1.501,6.901 1.501,6.919 1.501,6.937 C1.501,8.976 2.890,10.676 4.732,11.063 C4.394,11.159 4.038,11.210 3.671,11.210 C3.412,11.210 3.159,11.184 2.913,11.135 C3.426,12.807 4.913,14.024 6.676,14.057 C5.297,15.186 3.561,15.859 1.674,15.859 C1.349,15.859 1.028,15.838 0.713,15.799 C2.495,16.993 4.612,17.690 6.887,17.690 C14.294,17.690 18.345,11.278 18.345,5.717 C18.345,5.535 18.341,5.354 18.334,5.173 C19.120,4.580 19.803,3.839 20.343,2.995 Z"/>
</svg>
