<svg
 xmlns="http://www.w3.org/2000/svg"
 xmlns:xlink="http://www.w3.org/1999/xlink"
 width="23px" height="20px" viewBox="0 0 23 20">
<path fill-rule="evenodd"  stroke-width="1px" stroke="rgb(255, 255, 255)" fill="rgb(255, 255, 255)"
 d="M18.598,6.444 L18.598,9.725 L16.505,9.725 L16.505,6.444 L13.366,6.444 L13.366,4.258 L16.505,4.258 L16.505,0.978 L18.598,0.978 L18.598,4.258 L21.737,4.258 L21.737,6.444 L18.598,6.444 ZM9.236,2.178 C9.236,2.178 10.770,3.054 10.770,5.300 C10.770,7.547 8.891,8.171 8.441,9.663 C8.441,11.362 11.864,11.532 11.792,14.704 C11.539,19.084 7.446,18.965 6.381,19.041 C1.049,18.757 0.750,15.706 0.750,15.706 C0.750,11.570 7.031,11.608 7.031,11.608 C6.018,10.871 6.687,9.342 6.687,9.342 C1.916,9.040 2.260,5.470 2.260,5.470 C2.513,1.562 6.108,0.975 6.108,0.975 L11.892,0.994 L10.970,2.102 L9.236,2.178 ZM6.716,12.398 C4.773,12.398 2.870,13.720 2.870,15.208 C2.870,16.698 4.773,17.905 6.716,17.905 C8.660,17.905 10.235,16.698 10.235,15.208 C10.235,13.720 8.660,12.398 6.716,12.398 ZM8.713,4.811 C8.193,3.098 6.788,1.974 5.643,2.301 C4.498,2.630 3.993,4.282 4.514,5.995 C5.035,7.708 6.386,8.831 7.530,8.503 C8.676,8.176 9.236,6.523 8.713,4.811 Z"/>
</svg>
